<svg width="20" height="20" viewBox="0 0 20 20" fill="none" xmlns="http://www.w3.org/2000/svg">
<g id=" Outline / close">
<path id="Verctor" fill-rule="evenodd" clip-rule="evenodd" d="M11.1783 9.99996L14.7558 6.42246C15.0816 6.09663 15.0816 5.56996 14.7558 5.24413C14.43 4.9183 13.9033 4.9183 13.5775 5.24413L9.99996 8.82163L6.42246 5.24413C6.09663 4.9183 5.56996 4.9183 5.24413 5.24413C4.9183 5.56996 4.9183 6.09663 5.24413 6.42246L8.82163 9.99996L5.24413 13.5775C4.9183 13.9033 4.9183 14.43 5.24413 14.7558C5.40663 14.9183 5.61996 15 5.8333 15C6.04663 15 6.25996 14.9183 6.42246 14.7558L9.99996 11.1783L13.5775 14.7558C13.74 14.9183 13.9533 15 14.1666 15C14.38 15 14.5933 14.9183 14.7558 14.7558C15.0816 14.43 15.0816 13.9033 14.7558 13.5775L11.1783 9.99996Z" fill="#8191B9"/>
</g>
</svg>
