<svg width="18" height="16" viewBox="0 0 18 16" fill="none" xmlns="http://www.w3.org/2000/svg">
<path fill-rule="evenodd" clip-rule="evenodd" d="M10.6667 8.83333H9.83341V7.99999C9.83341 7.54166 9.45841 7.16666 9.00008 7.16666C8.54175 7.16666 8.16675 7.54166 8.16675 7.99999V8.83333H7.33341C6.87508 8.83333 6.50008 9.20833 6.50008 9.66666C6.50008 10.125 6.87508 10.5 7.33341 10.5H8.16675V11.3333C8.16675 11.7917 8.54175 12.1667 9.00008 12.1667C9.45841 12.1667 9.83341 11.7917 9.83341 11.3333V10.5H10.6667C11.1251 10.5 11.5001 10.125 11.5001 9.66666C11.5001 9.20833 11.1251 8.83333 10.6667 8.83333ZM15.6667 13.057C15.6667 13.2553 15.4801 13.417 15.2501 13.417H2.75008C2.52008 13.417 2.33341 13.2553 2.33341 13.057V9.46283V2.94283C2.33341 2.74449 2.52008 2.58366 2.75008 2.58366H6.18841L8.35508 5.23199C8.51341 5.42616 8.75008 5.53866 9.00008 5.53866H15.2501C15.4801 5.53866 15.6667 5.69949 15.6667 5.89866V13.057ZM15.2501 3.87199H9.39508L7.22925 1.22283C7.07092 1.02866 6.83342 0.916992 6.58425 0.916992H2.75008C1.60175 0.916992 0.666748 1.82533 0.666748 2.94283V13.057C0.666748 14.1745 1.60175 15.0837 2.75008 15.0837H15.2501C16.3984 15.0837 17.3334 14.1745 17.3334 13.057V5.89866C17.3334 4.78033 16.3984 3.87199 15.2501 3.87199Z" fill="#8191B9"/>
</svg>
