<svg width="20" height="20" viewBox="0 0 20 20" fill="none" xmlns="http://www.w3.org/2000/svg">
<g id=" Outline / arrow-right">
<path id="Verctor" fill-rule="evenodd" clip-rule="evenodd" d="M4.16659 10.8333H14.0541L11.0266 14.4666C10.7316 14.82 10.7799 15.3458 11.1333 15.64C11.4874 15.935 12.0124 15.8866 12.3074 15.5333L16.4741 10.5333C16.5066 10.4941 16.5224 10.4483 16.5466 10.405C16.5666 10.37 16.5908 10.34 16.6058 10.3016C16.6433 10.2058 16.6658 10.105 16.6658 10.0033C16.6658 10.0025 16.6666 10.0008 16.6666 9.99996C16.6666 9.99913 16.6658 9.99746 16.6658 9.99663C16.6658 9.89496 16.6433 9.79413 16.6058 9.69829C16.5908 9.65996 16.5666 9.62996 16.5466 9.59496C16.5224 9.55163 16.5066 9.50579 16.4741 9.46663L12.3074 4.46663C12.1416 4.26913 11.9049 4.16663 11.6666 4.16663C11.4783 4.16663 11.2891 4.22996 11.1333 4.35996C10.7799 4.65413 10.7316 5.17996 11.0266 5.53329L14.0541 9.16663H4.16659C3.70659 9.16663 3.33325 9.53996 3.33325 9.99996C3.33325 10.46 3.70659 10.8333 4.16659 10.8333Z" fill="#8191B9"/>
</g>
</svg>
