<svg width="20" height="20" viewBox="0 0 20 20" fill="none" xmlns="http://www.w3.org/2000/svg">
<g id=" Outline / arrow-left">
<path id="Verctor" fill-rule="evenodd" clip-rule="evenodd" d="M15.8333 9.16667H5.94575L8.97325 5.53334C9.26825 5.18001 9.21992 4.65417 8.86658 4.36001C8.51242 4.06501 7.98742 4.11334 7.69325 4.46667L3.52659 9.46667C3.49409 9.50584 3.47742 9.55167 3.45325 9.59501C3.43325 9.63001 3.40909 9.66001 3.39409 9.69834C3.35659 9.79417 3.33409 9.89501 3.33409 9.99667C3.33409 9.99751 3.33325 9.99917 3.33325 10C3.33325 10.0008 3.33409 10.0025 3.33409 10.0033C3.33409 10.105 3.35659 10.2058 3.39409 10.3017C3.40909 10.34 3.43325 10.37 3.45325 10.405C3.47742 10.4483 3.49409 10.4942 3.52659 10.5333L7.69325 15.5333C7.85825 15.7308 8.09492 15.8333 8.33325 15.8333C8.52158 15.8333 8.71075 15.77 8.86658 15.64C9.21992 15.3458 9.26825 14.82 8.97325 14.4667L5.94575 10.8333H15.8333C16.2933 10.8333 16.6666 10.46 16.6666 10C16.6666 9.54001 16.2933 9.16667 15.8333 9.16667Z" fill="#8191B9"/>
</g>
</svg>
