<svg width="4" height="16" viewBox="0 0 4 16" fill="none" xmlns="http://www.w3.org/2000/svg">
<path fill-rule="evenodd" clip-rule="evenodd" d="M1.99992 3.83333C2.91992 3.83333 3.66658 3.08667 3.66658 2.16667C3.66658 1.24667 2.91992 0.5 1.99992 0.5C1.07992 0.5 0.333252 1.24667 0.333252 2.16667C0.333252 3.08667 1.07992 3.83333 1.99992 3.83333ZM1.99992 6.33333C1.07992 6.33333 0.333252 7.08 0.333252 8C0.333252 8.92 1.07992 9.66667 1.99992 9.66667C2.91992 9.66667 3.66658 8.92 3.66658 8C3.66658 7.08 2.91992 6.33333 1.99992 6.33333ZM0.333252 13.8333C0.333252 12.9133 1.07992 12.1667 1.99992 12.1667C2.91992 12.1667 3.66658 12.9133 3.66658 13.8333C3.66658 14.7533 2.91992 15.5 1.99992 15.5C1.07992 15.5 0.333252 14.7533 0.333252 13.8333Z" fill="#8191B9"/>
</svg>
