<svg width="18" height="16" viewBox="0 0 18 16" fill="none" xmlns="http://www.w3.org/2000/svg">
<path fill-rule="evenodd" clip-rule="evenodd" d="M15.6667 9.66667C15.6667 10.1258 15.2934 10.5 14.8334 10.5H9.07258H8.92758H3.16675C2.70675 10.5 2.33341 10.1258 2.33341 9.66667V3C2.33341 2.54083 2.70675 2.16667 3.16675 2.16667H14.8334C15.2934 2.16667 15.6667 2.54083 15.6667 3V9.66667ZM14.8334 0.5H3.16675C1.78841 0.5 0.666748 1.62167 0.666748 3V9.66667C0.666748 11.045 1.78841 12.1667 3.16675 12.1667H8.16675V13.8333H4.83342C4.37508 13.8333 4.00008 14.2083 4.00008 14.6667C4.00008 15.125 4.37508 15.5 4.83342 15.5H13.1667C13.6251 15.5 14.0001 15.125 14.0001 14.6667C14.0001 14.2083 13.6251 13.8333 13.1667 13.8333H9.83342V12.1667H14.8334C16.2117 12.1667 17.3334 11.045 17.3334 9.66667V3C17.3334 1.62167 16.2117 0.5 14.8334 0.5Z" fill="#8191B9"/>
</svg>
